M48
INCH
T1C0.0079
T2C0.0118
T3C0.0118
T4C0.0236
%
G90
G05
T1
X5.9454Y-4.043
X5.9956Y-4.0125
X5.9956Y-4.0736
X6.0458Y-4.043
X6.158Y-4.043
X6.2082Y-4.0125
X6.2082Y-4.0736
X6.2584Y-4.043
X6.3716Y-4.0431
X6.4218Y-4.0126
X6.4218Y-4.0736
X6.472Y-4.0431
X7.3091Y-2.0523
X7.3203Y-1.9978
X7.342Y-2.0307
X7.3637Y-2.0635
X7.3749Y-2.009
T2
X5.7963Y-4.1329
X5.8091Y-4.2835
X5.834Y-4.4616
X5.8406Y-4.2717
X5.8622Y-4.5148
X5.8682Y-4.4499
X5.8711Y-4.0207
X5.8769Y-4.492
X5.8878Y-3.9075
X5.8986Y-4.492
X5.9085Y-4.3534
X5.9105Y-4.0434
X5.9202Y-4.492
X5.9272Y-3.8475
X5.9341Y-4.1615
X5.941Y-3.7835
X5.9439Y-4.2599
X5.9508Y-4.4961
X5.9527Y-3.864
X5.9528Y-3.94
X5.9572Y-3.6551
X5.9636Y-4.3839
X5.9646Y-4.4154
X5.9646Y-3.7077
X5.9656Y-4.3209
X5.9673Y-3.7882
X5.9676Y-3.631
X5.9744Y-3.9411
X5.9892Y-4.3849
X5.9922Y-4.2392
X5.9932Y-3.5217
X5.9951Y-4.4134
X5.9961Y-4.3298
X5.9992Y-3.942
X6.004Y-4.1654
X6.0109Y-3.4577
X6.0118Y-3.8327
X6.0119Y-3.8977
X6.0128Y-3.8672
X6.0148Y-3.5001
X6.0178Y-3.6388
X6.0193Y-4.4194
X6.0226Y-3.7226
X6.0228Y-3.9411
X6.0265Y-4.1455
X6.0266Y-4.2589
X6.0345Y-4.3849
X6.0361Y-4.3229
X6.0361Y-4.2146
X6.0365Y-3.6634
X6.0374Y-4.1652
X6.0374Y-4.193
X6.0374Y-3.8977
X6.0384Y-3.8682
X6.0384Y-3.3711
X6.0415Y-3.8376
X6.0482Y-3.9409
X6.0498Y-4.4093
X6.0568Y-4.4908
X6.06Y-3.7293
X6.0605Y-4.1664
X6.065Y-3.6644
X6.0675Y-4.3844
X6.0734Y-4.3219
X6.0778Y-4.1517
X6.0788Y-3.3524
X6.0817Y-3.4538
X6.0821Y-4.2124
X6.0827Y-4.0532
X6.0844Y-3.918
X6.0847Y-4.1054
X6.0896Y-3.4164
X6.0906Y-3.7146
X6.0906Y-3.9804
X6.0955Y-4.2983
X6.0981Y-4.4203
X6.0985Y-4.3967
X6.1004Y-4.2442
X6.1004Y-4.4892
X6.1073Y-4.128
X6.1142Y-4.2176
X6.1152Y-4.3219
X6.1162Y-3.504
X6.1166Y-3.6397
X6.1199Y-3.9777
X6.128Y-3.7146
X6.1329Y-3.3623
X6.1339Y-3.5739
X6.134Y-3.0616
X6.1368Y-4.3935
X6.1398Y-3.4981
X6.1437Y-4.1408
X6.1437Y-3.3219
X6.1457Y-4.2855
X6.1467Y-4.2166
X6.1487Y-4.5435
X6.1497Y-3.7155
X6.1514Y-4.4824
X6.1556Y-4.4201
X6.1585Y-4.3199
X6.1645Y-3.945
X6.1671Y-2.8884
X6.1671Y-3.0262
X6.1674Y-3.7304
X6.1724Y-3.4942
X6.1773Y-4.3853
X6.1777Y-4.4227
X6.1802Y-4.3298
X6.1814Y-4.2264
X6.1869Y-3.9186
X6.1874Y-3.6031
X6.1881Y-3.945
X6.19Y-4.1507
X6.1959Y-4.2494
X6.1979Y-3.4943
X6.199Y-2.8367
X6.2064Y-2.8884
X6.2077Y-4.4115
X6.2105Y-3.9186
X6.2117Y-3.7707
X6.2167Y-4.2179
X6.2174Y-2.8481
X6.2194Y-3.4802
X6.2261Y-3.0262
X6.2275Y-3.671
X6.2284Y-3.882
X6.2284Y-3.9046
X6.2294Y-4.3278
X6.2294Y-3.1566
X6.2294Y-3.5434
X6.2323Y-4.2018
X6.2323Y-3.5109
X6.2362Y-2.8597
X6.2372Y-3.9273
X6.2401Y-3.4675
X6.2402Y-3.3455
X6.2408Y-3.3739
X6.2441Y-3.6176
X6.2471Y-4.3888
X6.25Y-4.2412
X6.2531Y-4.4904
X6.2549Y-4.3305
X6.2551Y-2.8713
X6.256Y-3.1201
X6.2579Y-4.2655
X6.2638Y-4.4134
X6.2658Y-3.9282
X6.2718Y-4.2225
X6.2736Y-2.8827
X6.2746Y-3.3739
X6.2756Y-4.1507
X6.2796Y-4.3879
X6.2835Y-4.3271
X6.2852Y-2.9278
X6.2858Y-4.5055
X6.2904Y-3.927
X6.2922Y-2.8937
X6.2943Y-3.1221
X6.2982Y-4.4132
X6.2991Y-3.9472
X6.302Y-4.0558
X6.3031Y-2.6515
X6.3061Y-4.1438
X6.3071Y-4.3908
X6.3091Y-3.6625
X6.3111Y-3.9774
X6.313Y-3.8455
X6.313Y-3.8022
X6.314Y-3.882
X6.315Y-4.2451
X6.3169Y-4.4952
X6.3209Y-3.6881
X6.3248Y-4.0355
X6.3251Y-2.6653
X6.3308Y-4.1438
X6.3336Y-4.3857
X6.3337Y-4.3304
X6.334Y-3.1616
X6.334Y-3.6616
X6.3347Y-3.9774
X6.3357Y-3.9134
X6.3386Y-4.4932
X6.3458Y-2.6788
X6.3495Y-4.4057
X6.3583Y-3.7166
X6.3654Y-2.6906
X6.3662Y-3.193
X6.3672Y-4.4912
X6.3672Y-3.3239
X6.3672Y-4.5266
X6.3721Y-4.3288
X6.3721Y-4.1615
X6.3738Y-4.2464
X6.3741Y-3.3505
X6.3836Y-3.4632
X6.384Y-3.5116
X6.384Y-3.5616
X6.3845Y-2.7016
X6.3869Y-4.3839
X6.3957Y-3.6703
X6.3997Y-4.4961
X6.4005Y-3.9251
X6.4006Y-3.3505
X6.4026Y-4.2235
X6.4038Y-2.7131
X6.4135Y-3.9445
X6.4169Y-4.1674
X6.4201Y-2.4886
X6.4233Y-3.9243
X6.4243Y-4.3564
X6.4262Y-3.7737
X6.4262Y-3.8485
X6.4269Y-3.736
X6.4316Y-4.1408
X6.434Y-2.4616
X6.434Y-3.1616
X6.4385Y-2.4999
X6.442Y-4.2028
X6.4431Y-3.9433
X6.4498Y-3.7186
X6.4558Y-3.9243
X6.4559Y-3.7732
X6.4561Y-3.3393
X6.4574Y-2.5115
X6.4626Y-3.8455
X6.4656Y-4.4518
X6.4685Y-4.2166
X6.4688Y-3.7953
X6.4726Y-3.9459
X6.4731Y-2.3914
X6.4762Y-2.5231
X6.4813Y-4.1694
X6.4831Y-3.7357
X6.4832Y-4.2845
X6.4832Y-4.3072
X6.4832Y-4.3305
X6.4832Y-4.3522
X6.4872Y-3.9135
X6.4936Y-3.7645
X6.4947Y-2.5345
X6.495Y-3.6573
X6.4961Y-2.3762
X6.4978Y-3.4632
X6.4982Y-3.5116
X6.4982Y-3.5616
X6.505Y-3.8947
X6.505Y-3.9262
X6.5133Y-2.5456
X6.5158Y-4.1192
X6.5226Y-3.6258
X6.534Y-4.1716
X6.534Y-2.3616
X6.534Y-2.4616
X6.534Y-4.2616
X6.534Y-4.3616
X6.5345Y-3.3721
X6.5365Y-3.4065
X6.538Y-2.6894
X6.5403Y-3.6988
X6.5424Y-4.0946
X6.547Y-3.6223
X6.5729Y-3.4065
X6.5739Y-3.5178
X6.5759Y-3.372
X6.5778Y-3.4762
X6.5805Y-2.416
X6.5805Y-2.5144
X6.5857Y-3.4555
X6.5945Y-3.4066
X6.6147Y-2.1124
X6.6163Y-3.3998
X6.618Y-3.4956
X6.6226Y-3.4701
X6.6311Y-3.4476
X6.6338Y-3.4241
X6.634Y-2.3616
X6.634Y-2.4616
X6.634Y-2.8616
X6.6381Y-3.3989
X6.6386Y-2.5768
X6.6558Y-2.0964
X6.6603Y-2.0746
X6.6777Y-3.2457
X6.6792Y-2.8075
X6.6978Y-2.6213
X6.6986Y-2.2979
X6.6986Y-2.416
X6.6986Y-2.5144
X6.6987Y-3.2378
X6.7Y-2.0704
X6.7183Y-2.5341
X6.7305Y-2.2311
X6.734Y-2.4616
X6.734Y-2.8616
X6.7357Y-2.0256
X6.7457Y-3.0957
X6.7524Y-2.0027
X6.7535Y-2.2159
X6.7568Y-3.0758
X6.7597Y-2.361
X6.7636Y-2.9276
X6.7698Y-1.9772
X6.7786Y-3.1014
X6.7848Y-2.788
X6.7853Y-2.9224
X6.7871Y-1.9551
X6.7905Y-2.9441
X6.7947Y-3.2471
X6.7955Y-2.6773
X6.797Y-2.4947
X6.8049Y-2.8004
X6.8096Y-3.1084
X6.8121Y-2.9389
X6.8139Y-3.1388
X6.8173Y-2.9606
X6.8218Y-2.66
X6.825Y-2.8128
X6.834Y-1.8616
X6.8364Y-2.2585
X6.8374Y-2.7927
X6.8389Y-2.9554
X6.8392Y-2.6863
X6.8441Y-2.9771
X6.8481Y-2.6426
X6.8499Y-2.4477
X6.8501Y-3.1252
X6.8544Y-2.8401
X6.8561Y-1.8057
X6.8654Y-2.6689
X6.8658Y-2.9719
X6.8668Y-2.82
X6.8703Y-2.9947
X6.8725Y-2.7958
X6.8744Y-2.6253
X6.8754Y-1.8715
X6.8848Y-2.7756
X6.8917Y-2.6516
X6.8954Y-1.7664
X6.8954Y-1.8057
X6.8997Y-2.9903
X6.9005Y-1.8738
X6.9007Y-2.608
X6.918Y-2.6343
X6.934Y-2.6616
X6.9348Y-1.7664
X6.9348Y-1.8057
X6.9406Y-1.72
X6.9592Y-2.369
X6.964Y-2.7596
X6.9663Y-2.0379
X6.9742Y-1.7664
X6.9742Y-2.101
X6.9793Y-2.0577
X6.9936Y-2.0293
X7.0029Y-2.3779
X7.0135Y-2.2388
X7.0136Y-2.0109
X7.0159Y-2.3977
X7.0226Y-2.3649
X7.0275Y-2.4654
X7.0356Y-2.3847
X7.0637Y-2.49
X7.0726Y-1.9042
X7.0726Y-1.9829
X7.0772Y-2.5106
X7.08Y-1.7915
X7.0869Y-2.3838
X7.0933Y-2.4705
X7.1068Y-2.4911
X7.1133Y-1.74
X7.1139Y-1.5539
X7.1288Y-2.6207
X7.1316Y-1.8648
X7.1338Y-1.9482
X7.134Y-2.2616
X7.144Y-2.5113
X7.1493Y-1.6963
X7.1524Y-1.6072
X7.1526Y-1.7306
X7.1551Y-2.5473
X7.1604Y-2.6022
X7.1604Y-2.1853
X7.1655Y-2.5045
X7.171Y-1.9435
X7.1731Y-1.6205
X7.1801Y-2.5905
X7.1874Y-2.4738
X7.1878Y-2.4955
X7.1907Y-1.9829
X7.1947Y-2.1639
X7.2033Y-1.7102
X7.2136Y-2.5674
X7.2143Y-1.8451
X7.2262Y-2.1419
X7.2278Y-1.8708
X7.2291Y-2.4433
X7.2302Y-2.4859
X7.2366Y-1.581
X7.2415Y-1.7972
X7.2556Y-1.5661
X7.2644Y-1.8172
X7.2741Y-1.8486
X7.283Y-1.4431
X7.2882Y-2.3757
X7.2892Y-1.7101
X7.2941Y-1.8283
X7.3071Y-1.7896
X7.3279Y-1.5219
X7.3377Y-2.3432
X7.3394Y-1.8326
X7.3459Y-1.9112
X7.3482Y-1.5498
X7.3521Y-2.3097
X7.3597Y-1.7236
X7.3622Y-1.9288
X7.3634Y-1.4092
X7.3754Y-1.5088
X7.3822Y-1.5793
X7.3833Y-1.7568
X7.3846Y-1.3764
X7.4028Y-1.7772
X7.4057Y-1.6153
X7.4072Y-2.3412
X7.4141Y-1.4238
X7.416Y-1.7972
X7.4209Y-1.6433
X7.4245Y-1.9098
X7.4265Y-1.7752
X7.4275Y-1.8222
X7.4361Y-1.6648
X7.4419Y-1.9989
X7.446Y-1.8501
X7.4484Y-2.2526
X7.4557Y-1.6967
X7.4655Y-1.8806
X7.4663Y-2.2798
X7.4706Y-2.0789
X7.4768Y-2.219
X7.4802Y-1.9013
X7.4835Y-1.7258
X7.486Y-1.3333
X7.486Y-1.4514
X7.4883Y-1.7519
X7.4925Y-2.0692
X7.494Y-1.93
X7.494Y-1.8507
X7.4958Y-2.0472
X7.5057Y-1.3727
X7.5109Y-1.7762
X7.5269Y-1.9955
X7.545Y-1.353
X7.5451Y-2.0212
X7.5586Y-1.9487
X7.5619Y-2.1403
X7.5659Y-2.0546
X7.5675Y-1.8532
X7.5814Y-2.0798
X7.6631Y-2.0813
X7.7025Y-1.9239
X7.7025Y-1.9632
X7.7025Y-2.0026
X7.7025Y-2.042
X7.7419Y-1.8254
X7.7419Y-1.8648
X7.7419Y-1.9042
X7.7419Y-2.0223
X7.8009Y-1.8451
X7.8009Y-1.8845
X7.86Y-1.8254
X7.86Y-1.8616
X7.86Y-1.9042
T3
X6.6197Y-2.7048
X6.6403Y-2.6712
X6.6551Y-2.7035
X6.67Y-2.7357
X6.6906Y-2.7022
X6.9036Y-2.4582
X6.9253Y-2.4911
X6.9391Y-2.4584
X6.9529Y-2.4257
X6.9746Y-2.4586
T4
G00X7.4177Y-1.5157
M15
G01X7.444Y-1.4984
M16
G05
G00X7.5426Y-1.4333
M15
G01X7.582Y-1.4073
M16
G05
G00X7.6613Y-1.8851
M15
G01X7.6876Y-1.8678
M16
G05
G00X7.7862Y-1.8028
M15
G01X7.8256Y-1.7768
M16
G05
T0
M30
